<svg version="1.1" id="Layer_1" xmlns="http://www.w3.org/2000/svg" xmlns:xlink="http://www.w3.org/1999/xlink" x="0px" y="0px"
	 width="100%" viewBox="0 0 266 73" enable-background="new 0 0 266 73" xml:space="preserve">
<path fill="#000000" opacity="1.000000" stroke="none" 
	d="
M38.000000,1.000000 
	C114.269440,1.000000 190.538879,1.000000 266.904175,1.000000 
	C266.904175,25.248743 266.904175,49.497990 266.904175,74.000000 
	C193.645966,74.000000 120.291641,74.000000 46.172981,73.668945 
	C46.216618,72.892609 46.977734,72.300362 47.840023,72.025429 
	C54.373089,69.942368 59.733788,66.383759 64.483330,61.257191 
	C70.837982,54.398087 72.786659,46.195553 73.970398,36.999916 
	C68.771942,36.999916 63.650169,37.105560 58.535595,36.959305 
	C55.585545,36.874950 54.179546,37.467194 53.865891,40.963776 
	C53.235531,47.990906 43.182449,55.985203 36.784767,54.935318 
	C25.846191,53.140263 19.695944,46.573753 19.908176,35.649410 
	C20.470715,26.933020 27.308359,20.690222 34.446075,20.084402 
	C37.383034,19.835125 38.084690,18.597235 38.029823,15.999246 
	C37.924274,11.001516 37.999657,5.999966 38.000000,1.000000 
M25.023083,37.761917 
	C25.337297,38.494217 25.812647,39.199585 25.940239,39.963070 
	C26.965223,46.096340 33.313671,49.510872 38.066902,49.000458 
	C44.301758,48.330948 48.200024,44.010925 48.799446,36.281212 
	C46.964302,33.543285 45.720100,29.910089 43.183086,28.235485 
	C35.605175,23.233538 26.578459,25.692858 25.023083,37.761917 
M210.596039,28.999594 
	C212.339706,28.999594 214.083359,28.999594 216.285706,28.999594 
	C216.285706,36.779018 216.285706,43.843929 216.285706,50.768257 
	C219.703491,50.768257 222.649567,50.768257 226.046356,50.768257 
	C226.046356,43.481121 226.046356,36.410652 226.046356,28.904491 
	C229.244461,28.904491 231.984711,28.904491 234.692505,28.904491 
	C234.692505,26.720221 234.692505,24.995468 234.692505,23.312225 
	C225.314514,23.312225 216.245407,23.312225 206.668594,23.312225 
	C207.951797,25.443493 204.880997,29.036543 210.596039,28.999594 
M185.025070,32.464806 
	C179.948029,38.817055 181.126083,47.494949 187.767227,50.110649 
	C190.362198,51.132721 193.510864,50.936592 196.409866,50.958263 
	C201.676682,50.997639 205.164551,47.793552 205.981995,42.493294 
	C206.832748,36.976971 204.445084,31.200029 199.807312,30.610741 
	C195.207794,30.026310 190.359360,31.400917 185.025070,32.464806 
M85.823875,28.745312 
	C85.106674,29.434143 84.465324,30.231913 83.659294,30.793163 
	C79.938835,33.383778 80.463165,42.247124 82.387321,44.923771 
	C85.309052,48.988152 92.676758,50.050415 98.439705,48.244129 
	C105.195145,46.126759 102.613403,41.406673 102.791969,37.253494 
	C98.973755,37.253494 95.547646,37.253494 90.545624,37.253494 
	C92.362732,39.826447 93.533524,41.484241 94.954811,43.496723 
	C93.130096,42.789726 90.484543,42.502361 89.216698,41.029251 
	C88.280434,39.941425 88.394310,36.387611 89.381943,35.586491 
	C90.732224,34.491219 93.352104,34.875961 95.434509,34.790649 
	C97.874390,34.690689 100.321510,34.767262 103.081657,34.767262 
	C101.606918,30.365166 99.537216,27.351778 94.358185,27.953579 
	C91.731247,28.258827 89.048019,28.079622 85.823875,28.745312 
M164.052811,47.522240 
	C163.376099,46.427338 162.812393,45.239662 162.002899,44.253788 
	C158.712875,40.246918 158.029922,36.379147 162.047379,32.348770 
	C163.045502,31.347431 163.498962,29.803148 164.333664,28.267673 
	C159.307709,27.804310 154.783066,26.782688 153.553574,33.576637 
	C152.257034,31.305239 151.322586,29.668158 150.453979,28.146450 
	C147.668594,28.146450 145.070953,28.146450 142.385178,28.146450 
	C144.309036,31.641283 147.692123,35.043583 147.568542,38.313343 
	C147.438004,41.767467 143.965439,45.095280 141.882004,48.597267 
	C147.119904,49.945377 151.140427,49.018623 153.772430,42.633324 
	C155.563873,50.420780 159.841080,49.921249 164.052811,47.522240 
M178.000000,42.451080 
	C178.000000,36.045490 178.000000,29.639896 178.000000,23.327873 
	C174.659683,23.327873 171.941666,23.327873 169.307098,23.327873 
	C169.307098,32.692902 169.307098,41.726734 169.307098,50.669418 
	C172.341476,50.669418 175.060410,50.669418 178.000000,50.669418 
	C178.000000,48.037792 178.000000,45.734882 178.000000,42.451080 
M119.169220,48.262039 
	C120.639816,47.281475 122.110405,46.300911 123.581001,45.320351 
	C123.218903,44.824440 122.856812,44.328529 122.494713,43.832619 
	C119.161629,43.832619 115.828545,43.832619 112.495461,43.832619 
	C112.499092,43.563412 112.502716,43.294201 112.506348,43.024994 
	C115.938217,43.024994 119.370094,43.024994 122.798332,43.024994 
	C122.757675,35.724110 120.799255,33.957653 113.227348,34.000000 
	C107.034012,34.034637 104.998642,35.893303 105.000000,41.513081 
	C105.001450,47.510334 106.616356,49.005066 113.136971,48.994305 
	C114.962585,48.991295 116.788078,48.919327 119.169220,48.262039 
M131.000198,42.680740 
	C131.589493,41.795925 132.178802,40.911114 132.768112,40.026302 
	C133.178207,40.759052 133.888107,41.470520 133.941895,42.228561 
	C134.100266,44.459442 133.998398,46.708790 133.998398,48.661736 
	C136.756302,48.661736 138.818024,48.661736 140.999390,48.661736 
	C140.999390,45.019215 141.455032,41.622250 140.814224,38.446533 
	C140.475128,36.766068 138.379089,34.429005 136.814224,34.203053 
	C132.683411,33.606586 128.409470,34.001122 124.264801,34.001122 
	C124.264801,39.326820 124.264801,44.058262 124.264801,48.747078 
	C126.601425,48.747078 128.668976,48.747078 131.000000,48.747078 
	C131.000000,46.867691 131.000000,45.238327 131.000198,42.680740 
z"/>
<path fill="#FFFFFF" opacity="1.000000" stroke="none" 
	d="
M19.835855,36.050732 
	C19.695944,46.573753 25.846191,53.140263 36.784767,54.935318 
	C43.182449,55.985203 53.235531,47.990906 53.865891,40.963776 
	C54.179546,37.467194 55.585545,36.874950 58.535595,36.959305 
	C63.650169,37.105560 68.771942,36.999916 73.970398,36.999916 
	C72.786659,46.195553 70.837982,54.398087 64.483330,61.257191 
	C59.733788,66.383759 54.373089,69.942368 47.840023,72.025429 
	C46.977734,72.300362 46.216618,72.892609 45.704323,73.668945 
	C40.311958,74.000000 34.623920,74.000000 28.763609,73.669067 
	C28.263475,72.968781 27.996407,72.368134 27.598919,72.263649 
	C15.501979,69.084076 7.415587,61.522568 2.906445,49.938412 
	C2.717089,49.451954 1.655333,49.305077 1.000000,49.000000 
	C1.000000,45.307091 1.000000,41.614182 1.467708,37.470627 
	C7.902230,36.696896 13.869042,36.373814 19.835855,36.050732 
z"/>
<path fill="#5DE1E6" opacity="1.000000" stroke="none" 
	d="
M19.908176,35.649410 
	C13.869042,36.373814 7.902230,36.696896 1.467708,37.009987 
	C1.000000,33.307091 1.000000,29.614182 1.317543,25.749645 
	C1.897889,25.377977 2.313722,25.229670 2.401360,24.970419 
	C5.455538,15.935421 11.541754,9.531812 19.656202,4.812789 
	C21.539604,3.717483 23.224022,2.280022 25.000000,1.000000 
	C29.024544,1.000000 33.049088,1.000000 37.536816,1.000000 
	C37.999657,5.999966 37.924274,11.001516 38.029823,15.999246 
	C38.084690,18.597235 37.383034,19.835125 34.446075,20.084402 
	C27.308359,20.690222 20.470715,26.933020 19.908176,35.649410 
z"/>
<path fill="#000000" opacity="1.000000" stroke="none" 
	d="
M1.000000,49.468681 
	C1.655333,49.305077 2.717089,49.451954 2.906445,49.938412 
	C7.415587,61.522568 15.501979,69.084076 27.598919,72.263649 
	C27.996407,72.368134 28.263475,72.968781 28.295670,73.669067 
	C19.076431,74.000000 10.152864,74.000000 1.000000,74.000000 
	C1.000000,65.980568 1.000000,57.958965 1.000000,49.468681 
z"/>
<path fill="#000000" opacity="1.000000" stroke="none" 
	d="
M24.531307,1.000000 
	C23.224022,2.280022 21.539604,3.717483 19.656202,4.812789 
	C11.541754,9.531812 5.455538,15.935421 2.401360,24.970419 
	C2.313722,25.229670 1.897889,25.377977 1.317543,25.289009 
	C1.000000,17.073662 1.000000,9.147325 1.000000,1.000000 
	C8.686132,1.000000 16.374374,1.000000 24.531307,1.000000 
z"/>
<path fill="#5DCCD1" opacity="1.000000" stroke="none" 
	d="
M210.131912,28.998798 
	C204.880997,29.036543 207.951797,25.443493 206.668594,23.312225 
	C216.245407,23.312225 225.314514,23.312225 234.692505,23.312225 
	C234.692505,24.995468 234.692505,26.720221 234.692505,28.904491 
	C231.984711,28.904491 229.244461,28.904491 226.046356,28.904491 
	C226.046356,36.410652 226.046356,43.481121 226.046356,50.768257 
	C222.649567,50.768257 219.703491,50.768257 216.285706,50.768257 
	C216.285706,43.843929 216.285706,36.779018 216.285706,28.999594 
	C214.083359,28.999594 212.339706,28.999594 210.131912,28.998798 
z"/>
<path fill="#5DCCD1" opacity="1.000000" stroke="none" 
	d="
M185.322571,32.190567 
	C190.359360,31.400917 195.207794,30.026310 199.807312,30.610741 
	C204.445084,31.200029 206.832748,36.976971 205.981995,42.493294 
	C205.164551,47.793552 201.676682,50.997639 196.409866,50.958263 
	C193.510864,50.936592 190.362198,51.132721 187.767227,50.110649 
	C181.126083,47.494949 179.948029,38.817055 185.322571,32.190567 
M192.722046,36.074356 
	C192.194366,38.479164 191.666687,40.883968 191.139008,43.288773 
	C192.806885,43.630646 194.474762,43.972515 196.142639,44.314388 
	C196.423447,42.415829 197.154922,40.430958 196.814117,38.651443 
	C196.613342,37.603065 194.711731,36.880413 192.722046,36.074356 
z"/>
<path fill="#FFFFFF" opacity="1.000000" stroke="none" 
	d="
M86.107056,28.432373 
	C89.048019,28.079622 91.731247,28.258827 94.358185,27.953579 
	C99.537216,27.351778 101.606918,30.365166 103.081657,34.767262 
	C100.321510,34.767262 97.874390,34.690689 95.434509,34.790649 
	C93.352104,34.875961 90.732224,34.491219 89.381943,35.586491 
	C88.394310,36.387611 88.280434,39.941425 89.216698,41.029251 
	C90.484543,42.502361 93.130096,42.789726 94.954811,43.496723 
	C93.533524,41.484241 92.362732,39.826447 90.545624,37.253494 
	C95.547646,37.253494 98.973755,37.253494 102.791969,37.253494 
	C102.613403,41.406673 105.195145,46.126759 98.439705,48.244129 
	C92.676758,50.050415 85.309052,48.988152 82.387321,44.923771 
	C80.463165,42.247124 79.938835,33.383778 83.659294,30.793163 
	C84.465324,30.231913 85.106674,29.434143 86.107056,28.432373 
z"/>
<path fill="#FFFFFF" opacity="1.000000" stroke="none" 
	d="
M164.318542,47.817593 
	C159.841080,49.921249 155.563873,50.420780 153.772430,42.633324 
	C151.140427,49.018623 147.119904,49.945377 141.882004,48.597267 
	C143.965439,45.095280 147.438004,41.767467 147.568542,38.313343 
	C147.692123,35.043583 144.309036,31.641283 142.385178,28.146450 
	C145.070953,28.146450 147.668594,28.146450 150.453979,28.146450 
	C151.322586,29.668158 152.257034,31.305239 153.553574,33.576637 
	C154.783066,26.782688 159.307709,27.804310 164.333664,28.267673 
	C163.498962,29.803148 163.045502,31.347431 162.047379,32.348770 
	C158.029922,36.379147 158.712875,40.246918 162.002899,44.253788 
	C162.812393,45.239662 163.376099,46.427338 164.318542,47.817593 
z"/>
<path fill="#5DCCD1" opacity="1.000000" stroke="none" 
	d="
M178.000000,42.941525 
	C178.000000,45.734882 178.000000,48.037792 178.000000,50.669418 
	C175.060410,50.669418 172.341476,50.669418 169.307098,50.669418 
	C169.307098,41.726734 169.307098,32.692902 169.307098,23.327873 
	C171.941666,23.327873 174.659683,23.327873 178.000000,23.327873 
	C178.000000,29.639896 178.000000,36.045490 178.000000,42.941525 
z"/>
<path fill="#FFFFFF" opacity="1.000000" stroke="none" 
	d="
M118.891426,48.570515 
	C116.788078,48.919327 114.962585,48.991295 113.136971,48.994305 
	C106.616356,49.005066 105.001450,47.510334 105.000000,41.513081 
	C104.998642,35.893303 107.034012,34.034637 113.227348,34.000000 
	C120.799255,33.957653 122.757675,35.724110 122.798332,43.024994 
	C119.370094,43.024994 115.938217,43.024994 112.506348,43.024994 
	C112.502716,43.294201 112.499092,43.563412 112.495461,43.832619 
	C115.828545,43.832619 119.161629,43.832619 122.494713,43.832619 
	C122.856812,44.328529 123.218903,44.824440 123.581001,45.320351 
	C122.110405,46.300911 120.639816,47.281475 118.891426,48.570515 
z"/>
<path fill="#FFFFFF" opacity="1.000000" stroke="none" 
	d="
M131.000092,43.144852 
	C131.000000,45.238327 131.000000,46.867691 131.000000,48.747078 
	C128.668976,48.747078 126.601425,48.747078 124.264801,48.747078 
	C124.264801,44.058262 124.264801,39.326820 124.264801,34.001122 
	C128.409470,34.001122 132.683411,33.606586 136.814224,34.203053 
	C138.379089,34.429005 140.475128,36.766068 140.814224,38.446533 
	C141.455032,41.622250 140.999390,45.019215 140.999390,48.661736 
	C138.818024,48.661736 136.756302,48.661736 133.998398,48.661736 
	C133.998398,46.708790 134.100266,44.459442 133.941895,42.228561 
	C133.888107,41.470520 133.178207,40.759052 132.768112,40.026299 
	C132.178802,40.911114 131.589493,41.795925 131.000092,43.144852 
z"/>
<path fill="#5DE1E6" opacity="1.000000" stroke="none" 
	d="
M48.837910,37.009998 
	C48.200024,44.010925 44.301758,48.330948 38.066902,49.000458 
	C33.313671,49.510872 26.965223,46.096340 25.940239,39.963070 
	C25.812647,39.199585 25.337297,38.494217 25.550579,37.391132 
	C33.664688,37.016899 41.251301,37.013447 48.837910,37.009998 
z"/>
<path fill="#FEFFFF" opacity="1.000000" stroke="none" 
	d="
M48.818680,36.645607 
	C41.251301,37.013447 33.664688,37.016899 25.620274,37.016479 
	C26.578459,25.692858 35.605175,23.233538 43.183086,28.235485 
	C45.720100,29.910089 46.964302,33.543285 48.818680,36.645607 
z"/>
<path fill="#000000" opacity="1.000000" stroke="none" 
	d="
M193.148560,36.042812 
	C194.711731,36.880413 196.613342,37.603065 196.814117,38.651443 
	C197.154922,40.430958 196.423447,42.415829 196.142639,44.314384 
	C194.474762,43.972515 192.806885,43.630646 191.139008,43.288773 
	C191.666687,40.883968 192.194366,38.479164 193.148560,36.042812 
z"/>
</svg>